<?xml version="1.0" standalone="no"?>
<!DOCTYPE svg PUBLIC "-//W3C//DTD SVG 20010904//EN"
 "http://www.w3.org/TR/2001/REC-SVG-20010904/DTD/svg10.dtd">
<svg version="1.0" xmlns="http://www.w3.org/2000/svg"
 width="501.000000pt" height="501.000000pt" viewBox="0 0 501.000000 501.000000"
 preserveAspectRatio="xMidYMid meet">
<metadata>
Created by potrace 1.14, written by Peter Selinger 2001-2017
</metadata>
<g transform="translate(0.000000,501.000000) scale(0.100000,-0.100000)"
fill="#000000" stroke="none">
<path d="M144 3871 c-2 -2 -4 -15 -4 -28 0 -19 5 -23 33 -24 17 0 43 -2 57 -5
14 -2 54 -9 90 -15 135 -22 199 -100 218 -268 9 -85 9 -1636 0 -1721 -23 -204
-77 -253 -326 -301 -49 -9 -66 -17 -72 -33 -4 -12 -6 -24 -3 -28 2 -5 213 -8
469 -8 l465 0 -4 28 c-3 20 -10 28 -28 30 -67 8 -226 46 -263 62 -24 10 -57
35 -74 55 -28 34 -35 55 -58 160 -8 35 -16 1710 -8 1703 2 -3 22 -68 43 -144
40 -140 96 -328 191 -639 29 -93 57 -186 62 -205 5 -19 12 -42 15 -50 3 -8 7
-19 9 -25 3 -12 195 -642 259 -850 42 -137 44 -140 73 -143 29 -3 31 -1 47 55
9 32 25 87 35 123 48 163 362 1247 365 1260 2 8 27 94 55 190 29 96 74 251
101 344 26 93 50 171 53 173 8 8 -1 -1910 -9 -1941 -4 -15 -22 -43 -40 -60
-34 -34 -83 -49 -205 -61 -95 -10 -95 -10 -98 -38 l-3 -27 1070 0 c1068 0
1071 0 1068 20 -5 32 -17 38 -92 44 -169 15 -216 41 -240 133 -9 33 -13 157
-14 405 l-2 358 107 132 c58 73 110 134 115 136 5 2 120 -220 255 -494 291
-586 295 -598 197 -639 -28 -12 -115 -27 -213 -38 -36 -4 -49 -14 -43 -37 5
-20 14 -20 545 -20 l539 0 -3 27 c-3 26 -8 28 -97 45 -167 33 -225 78 -318
248 -17 30 -162 317 -323 637 l-293 581 123 154 c191 236 225 276 322 376 177
180 315 262 511 302 31 6 57 14 58 18 0 4 2 15 4 24 2 9 -2 18 -8 20 -7 2
-237 4 -512 4 l-500 -1 -3 -27 c-3 -22 1 -28 15 -28 10 0 68 -9 128 -21 276
-53 292 -138 80 -420 -44 -57 -84 -109 -90 -115 -17 -19 -48 -56 -85 -104 -52
-67 -491 -613 -502 -625 -5 -6 -8 208 -6 560 3 529 4 573 22 612 20 47 61 77
116 87 19 3 44 8 55 10 11 2 49 7 85 11 64 6 94 24 84 48 -6 18 -1786 18
-1797 0 -4 -6 -45 -144 -91 -305 -46 -161 -150 -522 -231 -803 -81 -280 -162
-562 -180 -625 -31 -108 -33 -113 -44 -87 -6 16 -11 33 -11 38 0 8 -444 1570
-505 1779 -4 13 -54 15 -371 15 -201 0 -367 -2 -370 -4z m2691 -66 c67 -10
130 -39 149 -67 36 -56 38 -103 38 -1078 0 -687 -3 -971 -11 -1011 -21 -98
-63 -122 -256 -145 -83 -10 -106 -10 -220 5 -166 22 -206 53 -223 171 -4 30
-7 485 -6 1010 1 914 2 957 20 1004 10 27 31 58 47 69 59 45 296 66 462 42z"/>
<path d="M2628 3498 c-2 -18 -1 -54 0 -80 l4 -48 48 0 c27 0 52 5 55 10 4 6
-12 10 -39 10 l-46 0 0 70 c0 70 -16 98 -22 38z"/>
<path d="M2609 2968 c-4 -81 0 -103 21 -120 29 -24 65 -23 90 2 16 16 20 33
20 81 0 42 -4 59 -12 57 -7 -3 -12 -27 -12 -61 -1 -59 -12 -77 -46 -77 -29 0
-40 23 -40 82 0 32 -4 58 -10 58 -5 0 -10 -10 -11 -22z"/>
<path d="M2610 2454 c0 -3 11 -20 25 -38 l25 -33 -30 -41 c-21 -30 -26 -42
-16 -42 8 0 23 14 33 30 9 17 21 30 25 30 4 0 15 -13 25 -30 9 -16 23 -30 30
-30 17 0 17 1 -12 40 -14 19 -25 37 -25 41 0 3 11 23 25 43 17 25 20 36 11 36
-8 0 -23 -14 -34 -31 l-19 -31 -22 31 c-20 28 -41 41 -41 25z"/>
<path d="M2619 1898 c-1 -25 -1 -119 0 -130 1 -12 111 -9 111 2 0 6 -20 10
-45 10 -41 0 -45 2 -45 25 0 23 4 25 40 25 22 0 40 5 40 10 0 6 -18 10 -40 10
-36 0 -40 3 -40 25 0 23 4 25 45 25 25 0 45 5 45 10 0 6 -25 10 -55 10 -50 0
-55 -2 -56 -22z"/>
</g>
</svg>
